<?xml version="1.0" encoding="UTF-8" standalone="no"?>
<!-- Created with Inkscape (http://www.inkscape.org/) -->

<svg
   version="1.1"
   id="svg1"
   width="225"
   height="225"
   viewBox="0 0 225 225"
   sodipodi:docname="pause.svg"
   inkscape:version="1.3.2 (091e20e, 2023-11-25, custom)"
   xmlns:inkscape="http://www.inkscape.org/namespaces/inkscape"
   xmlns:sodipodi="http://sodipodi.sourceforge.net/DTD/sodipodi-0.dtd"
   xmlns="http://www.w3.org/2000/svg"
   xmlns:svg="http://www.w3.org/2000/svg">
  <defs
     id="defs1" />
  <sodipodi:namedview
     id="namedview1"
     pagecolor="#ffffff"
     bordercolor="#666666"
     borderopacity="1.0"
     inkscape:showpageshadow="2"
     inkscape:pageopacity="0.0"
     inkscape:pagecheckerboard="0"
     inkscape:deskcolor="#d1d1d1"
     inkscape:zoom="1.3152186"
     inkscape:cx="47.520617"
     inkscape:cy="166.89241"
     inkscape:window-width="1920"
     inkscape:window-height="1051"
     inkscape:window-x="-9"
     inkscape:window-y="-9"
     inkscape:window-maximized="1"
     inkscape:current-layer="g1" />
  <g
     inkscape:groupmode="layer"
     inkscape:label="Image"
     id="g1">
    <path
       style="fill:none;stroke:#000000;stroke-width:1px;stroke-linecap:butt;stroke-linejoin:miter;stroke-opacity:1"
       d="m 122.71505,74.596774 22.71506,-0.537634 1.6129,2.956989 0.26882,70.564521 -2.55377,3.36021 -21.63978,0.13441 -2.01613,-2.68817 0.13441,-72.311831 z"
       id="path1" />
    <path
       style="fill:none;stroke:#000000;stroke-width:1px;stroke-linecap:butt;stroke-linejoin:miter;stroke-opacity:1"
       d="m 101.74731,74.05914 2.68817,2.553763 -0.40322,70.833337 -2.28495,3.36021 -20.833331,0.13441 -3.360216,-2.55376 0.268818,-71.102154 2.956989,-4.032258 z"
       id="path2" />
    <path
       style="fill:none;stroke:#000000;stroke-width:1px;stroke-linecap:butt;stroke-linejoin:miter;stroke-opacity:1"
       d="m 224.46237,122.58065 -0.94086,-22.849467 -2.01613,-16.39785 -3.36022,-9.408602 -4.7043,-9.274193 -5.64516,-11.693549 -5.10753,-7.392473 -12.5,-13.978494 -8.19892,-7.930108 -7.66129,-5.510753 L 159.00538,10.349462 144.62366,4.8387097 130.24194,1.344086 116.53226,0.67204301 103.36022,0.94086022 89.247312,2.5537634 74.462366,5.7795699 60.349462,12.5 48.790323,19.354839 38.037634,28.763441 27.956989,38.709677 21.236559,45.698925 15.322581,56.72043 9.6774194,67.741936 3.6290323,84.543011 2.1505376,94.892473 0.53763441,106.04839 l 0.1344086,9.4086 0.40322579,10.48387 2.1505377,12.90323 2.9569892,9.54301 3.4946237,9.4086 8.3333336,17.74193 10.215053,12.23119 18.548388,16.12903 10.483871,6.98925 19.22043,8.19892 c 0,0 12.5,3.76344 13.037634,3.89785 0.537634,0.13441 15.994621,1.74731 15.994621,1.74731 l 25.67205,-1.34408 18.14516,-4.16667 24.59677,-11.96237 13.44086,-9.54301 16.12903,-18.27957 8.46775,-15.45699 6.45161,-11.69354 2.15054,-6.58603 2.41935,-10.21505 0.80645,-9.27419 z"
       id="path3" />
    <path
       style="fill:none;stroke:#000000;stroke-width:1px;stroke-linecap:butt;stroke-linejoin:miter;stroke-opacity:1"
       d="m 207.12366,121.77419 v -21.37096 l -3.0914,-14.247316 -2.55377,-8.870968 -4.97311,-8.60215 -6.31721,-11.021506 -6.72043,-9.811828 -5.64516,-4.435483 -7.52688,-6.854839 -9.94624,-7.526882 -11.69355,-4.301075 -10.88709,-3.494624 -11.02151,-2.553763 -29.435482,0.134408 -15.860215,3.494624 -11.155914,5.376344 -12.231183,7.123656 -9.811828,7.392473 -8.333333,9.274194 -6.048387,7.66129 -5.376344,10.215054 -4.704301,9.677419 -2.553764,9.408602 -2.688172,9.408602 -0.134408,8.198928 0.134408,16.66666 1.881721,12.90323 3.76344,11.96237 5.376344,10.48387 6.989248,11.96236 12.231183,12.63441 11.021505,9.67742 10.215054,3.89785 14.247312,6.3172 15.053763,3.0914 9.543013,0.80645 11.0215,0.40323 11.69355,-2.15054 18.95161,-5.64516 13.9785,-8.33333 11.29032,-9.13979 13.17204,-12.63441 11.42474,-19.75806 3.09139,-8.33333 2.95699,-12.23119 z"
       id="path4" />
    <path
       style="fill:#000000;stroke-width:0.268817"
       d="m 79.747726,149.2766 -1.569479,-1.15832 0.161483,-35.32103 0.161482,-35.321022 1.36043,-1.835118 c 1.354208,-1.826727 1.365564,-1.834563 2.483265,-1.713605 0.617559,0.06683 5.175254,0.257271 10.128211,0.423198 l 9.005372,0.301685 1.16104,1.114666 1.16103,1.114666 -0.18265,35.08065 -0.18266,35.08064 -0.97838,1.54335 -0.97838,1.54335 -4.862681,0.002 c -2.674478,0.001 -7.210768,0.07 -10.080645,0.15261 l -5.21796,0.15025 z"
       id="path5" />
    <path
       style="fill:#000000;stroke-width:0.268817"
       d="m 122.6039,149.275 -0.82971,-1.12823 V 112.36293 76.579081 l 0.73925,-0.69813 0.73925,-0.698131 9.54301,-0.166103 c 5.24865,-0.09136 10.15032,-0.228452 10.89259,-0.304656 l 1.34959,-0.138554 0.70338,1.434158 0.70337,1.434159 0.0976,34.955956 0.0976,34.95596 -1.15118,1.52474 -1.15118,1.52475 h -10.45191 -10.4519 z"
       id="path6" />
    <path
       style="fill:#000000;stroke-width:0.268817"
       d="m 97.043011,223.21457 c -7.058492,-0.77885 -7.181441,-0.80324 -13.44086,-2.66627 -5.169,-1.53848 -8.076156,-2.62363 -15.994624,-5.97029 l -9.677419,-4.09007 -5.510753,-3.66381 c -4.873441,-3.24009 -6.575121,-4.59267 -14.714199,-11.69558 -9.176739,-8.00847 -9.217884,-8.04911 -14.178816,-14.00599 l -4.975369,-5.97422 -4.172739,-8.90093 C 7.5253675,151.62945 4.498836,142.67578 2.7073819,131.72043 1.6394598,125.18972 1.6017091,124.73818 1.3701744,115.72581 l -0.2382612,-9.2742 1.5725326,-10.887094 1.5725327,-10.887097 2.99589,-8.333333 C 10.440029,67.534349 11.397965,65.483309 18.886299,51.478495 l 2.946584,-5.510753 7.833558,-7.891691 c 4.308457,-4.34043 10.434365,-10.185914 13.613129,-12.989962 5.531597,-4.879527 6.027607,-5.245987 11.560629,-8.54116 3.479497,-2.072204 8.581739,-4.779837 12.815806,-6.8010314 L 74.690753,6.385757 82.305054,4.7449199 C 95.979476,1.7981626 108.06976,0.87815982 123.11828,1.6392624 l 7.12366,0.3602901 7.12365,1.7421394 c 10.0163,2.4495554 18.28513,5.6135785 29.03226,11.1090431 10.21054,5.221081 13.73183,7.716333 20.47239,14.507106 7.07812,7.130853 14.64654,15.73696 17.68042,20.104525 2.18153,3.140526 3.47138,5.498701 7.79283,14.247311 3.83599,7.765818 5.61611,11.703511 6.86615,15.188172 l 1.68755,4.704302 0.99202,8.064516 c 0.82725,6.724984 1.07034,9.958773 1.46349,19.468673 0.38302,9.26486 0.40982,11.7358 0.14288,13.17204 -0.18072,0.97234 -0.51763,3.88482 -0.74868,6.47219 -0.31805,3.56151 -0.7147,5.94505 -1.6328,9.81183 -2.11387,8.90304 -2.657,10.21662 -8.98953,21.74127 -3.09706,5.63639 -6.42053,11.68907 -7.38549,13.45041 -1.6231,2.96265 -2.3543,3.88383 -9.76559,12.30294 l -8.01112,9.10051 -6.66328,4.73021 -6.66328,4.73022 -12.29371,5.9883 -12.29371,5.9883 -8.99764,2.06396 -8.99763,2.06397 -12.09914,0.65121 c -6.65453,0.35816 -12.70398,0.63922 -13.44323,0.62456 -0.73924,-0.0147 -4.54973,-0.38036 -8.467739,-0.81269 z m 29.313539,-16.89948 c 4.43384,-0.82831 7.92637,-1.72222 15.10712,-3.86668 l 9.34,-2.78929 7.05785,-4.19006 c 6.22906,-3.69804 7.70494,-4.71464 12.56859,-8.65733 3.03091,-2.457 8.55154,-7.36488 12.26806,-10.9064 l 6.7573,-6.43913 5.7747,-10.00192 c 6.79774,-11.77386 7.86431,-14.29037 10.32066,-24.35091 2.00062,-8.19404 2.23231,-10.67899 2.23929,-24.01757 l 0.006,-10.67839 -1.72853,-7.869999 c -0.9507,-4.328494 -2.25767,-9.630846 -2.90438,-11.783 -1.15314,-3.837465 -1.28149,-4.096951 -6.64796,-13.44086 -3.00966,-5.24032 -7.07474,-11.886723 -9.0335,-14.769788 -3.43859,-5.061182 -3.65169,-5.311454 -6.18023,-7.258064 -1.44036,-1.108871 -4.38485,-3.624003 -6.5433,-5.58918 -2.15846,-1.96518 -6.22285,-5.310522 -9.03199,-7.434097 l -5.10753,-3.861043 -5.64516,-2.075553 c -8.46203,-3.111228 -15.75367,-5.386569 -21.99937,-6.864852 l -5.60152,-1.325813 h -15.0179 -15.017473 l -8.010038,1.755512 -8.010035,1.755511 -5.645161,2.712177 c -8.357194,4.015152 -16.729648,8.990222 -22.849462,13.57758 -4.698019,3.521591 -5.432054,4.190892 -9.155137,8.347785 -7.305207,8.156398 -9.888541,11.638347 -13.028533,17.56054 -4.527313,8.538753 -7.41325,14.758253 -8.194948,17.660984 -0.38873,1.443495 -1.57547,5.648728 -2.6372,9.344965 l -1.930419,6.72043 0.03202,12.903225 0.03202,12.90323 0.960009,6.3172 c 0.86025,5.66076 1.157434,6.94231 2.859902,12.33285 1.705681,5.4007 2.190314,6.57576 4.740976,11.49515 1.562597,3.01373 4.346919,8.04863 6.187384,11.18866 l 3.346301,5.70915 6.108866,6.3172 c 3.399355,3.51529 8.590739,8.49947 11.704495,11.23733 l 5.595626,4.92013 5.157062,1.9665 c 2.836384,1.08158 8.361621,3.38394 12.278303,5.11636 l 7.121245,3.14985 7.529293,1.55992 c 8.964664,1.85729 14.936134,2.4714 25.686914,2.64166 2.93838,0.0465 4.11529,-0.0853 9.13979,-1.02397 z"
       id="path7" />
  </g>
</svg>
