<?xml version="1.0" encoding="UTF-8" standalone="no"?>
<!-- Created with Inkscape (http://www.inkscape.org/) -->

<svg
   version="1.1"
   id="svg1"
   width="512"
   height="512"
   viewBox="0 0 512 512"
   sodipodi:docname="start.svg"
   inkscape:version="1.3.2 (091e20e, 2023-11-25, custom)"
   xmlns:inkscape="http://www.inkscape.org/namespaces/inkscape"
   xmlns:sodipodi="http://sodipodi.sourceforge.net/DTD/sodipodi-0.dtd"
   xmlns="http://www.w3.org/2000/svg"
   xmlns:svg="http://www.w3.org/2000/svg">
  <defs
     id="defs1">
    <inkscape:path-effect
       effect="bspline"
       id="path-effect2"
       is_visible="true"
       lpeversion="1.3"
       weight="33.333333"
       steps="2"
       helper_size="0"
       apply_no_weight="true"
       apply_with_weight="true"
       only_selected="false"
       uniform="false" />
    <inkscape:path-effect
       effect="bspline"
       id="path-effect1"
       is_visible="true"
       lpeversion="1.3"
       weight="33.333333"
       steps="2"
       helper_size="0"
       apply_no_weight="true"
       apply_with_weight="true"
       only_selected="false"
       uniform="false" />
    <inkscape:path-effect
       effect="bspline"
       id="path-effect2-2"
       is_visible="true"
       lpeversion="1.3"
       weight="33.333333"
       steps="2"
       helper_size="0"
       apply_no_weight="true"
       apply_with_weight="true"
       only_selected="false"
       uniform="false" />
  </defs>
  <sodipodi:namedview
     id="namedview1"
     pagecolor="#ffffff"
     bordercolor="#666666"
     borderopacity="1.0"
     inkscape:showpageshadow="2"
     inkscape:pageopacity="0.0"
     inkscape:pagecheckerboard="0"
     inkscape:deskcolor="#d1d1d1"
     inkscape:zoom="0.81738281"
     inkscape:cx="-175.56033"
     inkscape:cy="267.31661"
     inkscape:window-width="1920"
     inkscape:window-height="1051"
     inkscape:window-x="-9"
     inkscape:window-y="-9"
     inkscape:window-maximized="1"
     inkscape:current-layer="g1" />
  <g
     inkscape:groupmode="layer"
     inkscape:label="Image"
     id="g1">
    <path
       style="fill:#000000"
       d="m 364.80764,256.22939 c -0.22939,-3.89964 -0.84109,-8.94624 -2.14099,-13.27921 -1.2999,-4.33297 -3.28792,-7.95217 -5.14855,-10.67939 -1.86063,-2.72722 -3.59377,-4.56231 -6.83077,-7.34052 -3.23701,-2.77821 -7.97765,-6.49937 -28.41927,-19.52388 -20.44162,-13.02452 -56.58268,-35.35143 -77.12593,-47.07586 -20.54326,-11.72442 -25.48781,-12.84586 -29.48943,-13.25367 -4.00163,-0.4078 -7.06011,-0.10195 -10.0932,0.56074 -3.03308,0.6627 -6.04058,1.68219 -8.84427,2.90563 -2.80369,1.22343 -5.4034,2.65072 -7.9777,4.35843 -2.5743,1.7077 -5.12303,3.69571 -7.23854,6.14257 -2.11551,2.44687 -3.79767,5.35242 -5.25049,8.13063 -1.45282,2.7782 -2.67621,5.42888 -3.44085,7.77379 -0.76464,2.3449 -1.07049,4.38389 -1.29989,6.19354 -0.22939,1.80965 -0.38231,3.38987 -0.45878,27.90966 -0.0765,24.51979 -0.0765,71.97722 0.0765,96.624 0.15293,24.64677 0.45878,26.48186 0.8411,28.39347 0.38232,1.9116 0.8411,3.89962 1.55477,5.88769 0.71367,1.98807 1.68218,3.97608 3.21147,6.16806 1.5293,2.19198 3.61926,4.58779 5.55636,6.83074 1.93709,2.24296 3.7212,4.33292 5.58184,5.8622 1.86063,1.52928 3.79767,2.4978 6.34648,3.64477 2.54882,1.14696 5.70925,2.4723 9.63443,3.36438 3.92518,0.89208 8.61485,1.35086 11.80085,1.45281 3.18599,0.10195 4.86816,-0.15293 7.49344,-0.8666 2.62529,-0.71367 6.19352,-1.88609 9.71088,-3.56831 3.51735,-1.68222 6.98363,-3.87413 26.89001,-16.5928 19.90638,-12.71867 56.25133,-35.96313 75.41822,-48.57964 19.16688,-12.61651 21.15489,-14.60452 22.76064,-17.05138 1.60575,-2.44687 2.82914,-5.35242 3.89964,-7.92672 1.0705,-2.57429 1.98804,-4.81718 2.52328,-7.31502 0.53525,-2.49783 0.68817,-5.25047 0.45878,-9.15011 z"
       id="path1"
       inkscape:path-effect="#path-effect1"
       inkscape:original-d="m 365.18996,257.37634 c -0.6117,-5.04659 -1.22341,-10.09319 -1.83512,-15.13978 -1.98809,-3.61935 -3.97611,-7.23855 -5.96416,-10.85783 -1.73321,-1.83516 -3.46635,-3.67025 -5.19952,-5.50537 -4.74084,-3.7213 -9.48148,-7.44246 -14.22222,-11.16368 -36.1425,-22.32781 -72.28356,-44.65472 -108.42533,-66.98208 -4.94474,-1.12149 -9.88929,-2.24293 -14.83393,-3.3644 -3.05861,0.30586 -6.11709,0.61171 -9.17563,0.91756 -3.00763,1.01954 -6.01513,2.03903 -9.0227,3.05855 -2.59981,1.42735 -5.19952,2.85464 -7.79928,4.28196 -2.54884,1.98809 -5.09757,3.9761 -7.64636,5.96415 -1.68223,2.90568 -3.3644,5.81123 -5.04659,8.71685 -1.22345,2.65079 -2.44684,5.30147 -3.67025,7.95221 -0.30587,2.03907 -0.61171,4.07806 -0.91757,6.11709 -0.15293,1.58027 -0.30585,3.16049 -0.45878,4.74074 0,47.45933 0,94.91676 0,142.37515 0.30586,1.83516 0.61171,3.67025 0.91756,5.50537 0.45879,1.98809 0.91757,3.97611 1.37635,5.96416 0.96856,1.98809 1.93707,3.9761 2.90561,5.96416 2.09005,2.3959 4.18001,4.79171 6.27002,7.18757 1.78418,2.09005 3.56829,4.18001 5.35244,6.27001 1.93712,0.96856 3.87416,1.93708 5.81123,2.90562 3.16056,1.32539 6.32099,2.65074 9.48149,3.9761 4.68986,0.45879 9.37953,0.91757 14.06929,1.37635 1.68223,-0.25489 3.3644,-0.50976 5.0466,-0.76464 3.56837,-1.17246 7.1366,-2.34488 10.7049,-3.51732 3.46641,-2.192 6.93269,-4.38391 10.39904,-6.57587 36.34641,-23.24538 72.69136,-46.48984 109.03704,-69.73476 1.98809,-1.9881 3.9761,-3.97611 5.96415,-5.96416 1.22345,-2.90568 2.44684,-5.81123 3.67026,-8.71685 0.91758,-2.24297 1.83512,-4.48586 2.75268,-6.72879 0.15293,-2.75274 0.30586,-5.50538 0.45878,-8.25807 z" />
    <path
       style="fill:none;stroke:#000000;stroke-width:1px;stroke-linecap:butt;stroke-linejoin:miter;stroke-opacity:1"
       d="m 468.44431,266.77103 c 0.0721,-7.46137 -0.28837,-18.27495 -1.22556,-29.08864 -0.93719,-10.81369 -2.45107,-21.62705 -4.57777,-31.61168 -2.12669,-9.98463 -4.86608,-19.13995 -7.96601,-27.61066 -3.09992,-8.47072 -6.5602,-16.25634 -11.02986,-24.15034 -4.46967,-7.89399 -9.94844,-15.89588 -15.17506,-23.0329 -5.22661,-7.13703 -10.20076,-13.40878 -15.71575,-19.32026 -5.51498,-5.91148 -11.57047,-11.46234 -17.12149,-16.184313 -5.55102,-4.721969 -10.59726,-8.614782 -17.01339,-13.156537 -6.41614,-4.541755 -14.20176,-9.732168 -20.36555,-13.480898 -6.16378,-3.74873 -10.7054,-6.055584 -17.69827,-8.795056 -6.99288,-2.739471 -16.43655,-5.911391 -24.58285,-8.398533 -8.1463,-2.487142 -14.99476,-4.289369 -21.23065,-5.442822 -6.23589,-1.153454 -11.85884,-1.658078 -15.21106,-2.054579 -3.35222,-0.396501 -4.43355,-0.684856 -9.98463,-1.009267 -5.55107,-0.324412 -15.57145,-0.684857 -24.51076,-0.288348 -8.9393,0.396509 -16.79701,1.549935 -23.68172,2.703395 -6.8847,1.15346 -12.79601,2.306887 -19.24818,4.001036 -6.45217,1.694149 -13.44482,3.928913 -20.04116,6.307926 -6.59635,2.379012 -12.79601,4.902129 -18.56331,7.677644 -5.76729,2.775515 -11.10189,5.80326 -18.09476,10.345023 -6.99286,4.541762 -15.64356,10.597251 -23.17708,16.616871 -7.53353,6.01962 -13.94945,12.003008 -19.96907,18.274958 -6.019615,6.27194 -11.642566,12.83205 -16.436626,19.0319 -4.794061,6.19984 -8.758958,12.03905 -12.79607,18.67146 -4.037112,6.6324 -8.146193,14.05758 -11.101923,20.25741 -2.95573,6.19984 -4.757958,11.17399 -6.416054,15.85991 -1.658096,4.68593 -3.171969,9.08337 -4.794023,14.7065 -1.622054,5.62313 -3.352192,12.47159 -4.64983,20.04118 -1.297639,7.56959 -2.162708,15.85984 -2.631297,23.78987 -0.468589,7.93004 -0.540678,15.49939 -0.25231,22.81665 0.288369,7.31726 0.937171,14.38199 1.946452,21.30275 1.009282,6.92076 2.378975,13.69714 4.794042,22.60043 2.415067,8.90329 5.875344,19.93292 9.083403,28.51175 3.208058,8.57884 6.16371,14.70641 9.696187,20.94231 3.532477,6.23589 7.641555,12.57973 12.327494,19.17609 4.685939,6.59635 9.948442,13.44481 16.328529,20.61789 6.380086,7.17309 13.877356,14.67035 21.374846,21.05042 7.49749,6.38007 14.99475,11.64257 23.06898,16.79709 8.07423,5.15453 16.72492,10.20076 25.26773,14.27391 8.54281,4.07315 16.97724,7.17298 26.0247,9.8764 9.04746,2.70341 18.7074,5.01026 26.56532,6.63231 7.85793,1.62204 13.91342,2.5592 19.46444,2.9557 5.55102,0.3965 10.59726,0.25232 16.29248,0.0721 5.69521,-0.18023 12.03905,-0.3965 18.67145,-0.93719 6.6324,-0.54068 13.55295,-1.40575 21.0144,-2.63131 7.46145,-1.22555 15.46334,-2.81151 23.57361,-5.22657 8.11026,-2.41507 16.32842,-5.65908 24.3666,-9.37178 8.03817,-3.71271 15.89588,-7.89388 23.71778,-12.83213 7.8219,-4.93826 15.60752,-10.6333 21.98759,-15.75177 6.38006,-5.11848 11.35421,-9.6601 16.22036,-14.49021 4.86616,-4.83012 9.62404,-9.94844 13.98556,-14.85064 4.36152,-4.90221 8.32642,-9.588 12.83213,-16.00414 4.50571,-6.41614 9.55194,-14.56221 13.66114,-22.63643 4.10919,-8.07422 7.28111,-16.0761 10.23685,-23.898 2.95574,-7.8219 5.69512,-15.46335 7.60553,-23.42943 1.91041,-7.96609 2.99175,-16.25634 3.78475,-22.45616 0.793,-6.19983 1.29763,-10.30891 1.36972,-17.77028 z"
       id="path2"
       inkscape:path-effect="#path-effect2"
       inkscape:original-d="m 468.87685,270.12324 c -0.36046,-10.81358 -0.72091,-21.62716 -1.08136,-32.44074 -1.51393,-10.8138 -3.0278,-21.62716 -4.54171,-32.44074 -2.73949,-9.15568 -5.47888,-18.311 -8.21832,-27.4665 -3.46041,-7.78593 -6.92069,-15.57155 -10.38103,-23.35733 -5.47899,-8.00221 -10.95776,-16.0041 -16.43665,-24.00615 -4.97434,-6.272 -9.94849,-12.54375 -14.92274,-18.81563 -6.05572,-5.55108 -12.11121,-11.10194 -18.16681,-16.652914 -5.04644,-3.892967 -10.09268,-7.785778 -15.13901,-11.678667 -7.78594,-5.190622 -15.57156,-10.381037 -23.35734,-15.571556 -4.54179,-2.306943 -9.08341,-4.613794 -13.62511,-6.920691 -9.44405,-3.172047 -18.88772,-6.343967 -28.33158,-9.515951 -6.84874,-1.802299 -13.6972,-3.604527 -20.5458,-5.40679 -5.62318,-0.504644 -11.24613,-1.009268 -16.86919,-1.513901 -1.08138,-0.288368 -2.16271,-0.576725 -3.24407,-0.865087 -10.02079,-0.36046 -20.04117,-0.720905 -30.06176,-1.081358 -7.85802,1.153472 -15.71573,2.306897 -23.5736,3.460346 -5.91154,1.153472 -11.82285,2.306897 -17.73427,3.460346 -6.99292,2.234851 -13.98557,4.469613 -20.97835,6.70442 -6.19991,2.523219 -12.39957,5.046337 -18.59936,7.569506 -5.3348,3.027863 -10.6694,6.055605 -16.0041,9.083407 -8.65103,6.055727 -17.30173,12.11121 -25.95259,18.166815 -6.41619,5.983635 -12.83211,11.967025 -19.24817,17.950545 -5.623177,6.56037 -11.246126,13.12048 -16.869188,19.68072 -3.965059,5.83945 -7.929959,11.67866 -11.894938,17.518 -4.109243,7.42547 -8.218322,14.85065 -12.327482,22.27597 -1.8023,4.97435 -3.604527,9.9485 -5.40679,14.92274 -1.513932,4.39761 -3.027803,8.79505 -4.541704,13.19257 -1.730208,6.84874 -3.460346,13.6972 -5.190519,20.5458 -0.865103,8.29058 -1.730173,16.58083 -2.595259,24.87124 -0.07209,7.56966 -0.144181,15.13901 -0.216272,22.70852 0.648828,7.06501 1.29763,14.12974 1.946445,21.19461 1.369747,6.77665 2.73944,13.55303 4.10916,20.32954 3.460415,11.03007 6.920692,22.0597 10.381038,33.08955 2.955771,6.12782 5.911424,12.25539 8.867136,18.38309 4.109242,6.34409 8.218321,12.68793 12.327481,19.0319 5.262715,6.84874 10.525219,13.6972 15.787828,20.5458 7.497564,7.49757 14.994834,14.99483 22.492244,22.49225 7.49757,5.26271 14.99483,10.52522 22.49225,15.78783 8.65104,5.04644 17.30173,10.09267 25.95259,15.13901 8.43476,3.09996 16.86919,6.19979 25.30378,9.29968 9.66033,2.30694 19.32027,4.61379 28.9804,6.92069 6.05572,0.9372 12.11121,1.87435 18.16681,2.81153 5.04644,-0.14418 10.09268,-0.28836 15.13901,-0.43254 6.3441,-0.21628 12.68794,-0.43254 19.03191,-0.64882 6.92083,-0.8651 13.84138,-1.73017 20.76207,-2.59526 8.00221,-1.58602 16.0041,-3.17198 24.00615,-4.75797 8.21848,-3.24414 16.43664,-6.48815 24.65496,-9.73222 7.85803,-4.18134 15.71574,-8.36251 23.57361,-12.54376 7.78593,-5.69526 15.57155,-11.3903 23.35733,-17.08545 4.97435,-4.5418 9.9485,-9.08341 14.92274,-13.62512 4.75807,-5.11853 9.51595,-10.23685 14.27393,-15.35528 3.96506,-4.68598 7.92996,-9.37177 11.89494,-14.05765 5.04644,-8.1464 10.09267,-16.29247 15.13901,-24.4387 3.17205,-8.00221 6.34397,-16.00409 9.51595,-24.00614 2.7395,-7.64175 5.47888,-15.2832 8.21832,-22.92479 1.08138,-8.29058 2.16272,-16.58083 3.24408,-24.87124 0.50464,-4.10924 1.00926,-8.21832 1.5139,-12.32748 z" />
    <path
       style="fill:none;stroke:#000000;stroke-width:1px;stroke-linecap:butt;stroke-linejoin:miter;stroke-opacity:1"
       d="m 468.44431,266.77103 c 0.0721,-7.46137 -0.28837,-18.27495 -1.22556,-29.08864 -0.93719,-10.81369 -2.45107,-21.62705 -4.57777,-31.61168 -2.12669,-9.98463 -4.86608,-19.13995 -7.96601,-27.61066 -3.09992,-8.47072 -6.5602,-16.25634 -11.02986,-24.15034 -4.46967,-7.89399 -9.94844,-15.89588 -15.17506,-23.0329 -5.22661,-7.13703 -10.20076,-13.40878 -15.71575,-19.32026 -5.51498,-5.91148 -11.57047,-11.46234 -17.12149,-16.184313 -5.55102,-4.721969 -10.59726,-8.614782 -17.01339,-13.156537 -6.41614,-4.541755 -14.20176,-9.732168 -20.36555,-13.480898 -6.16378,-3.74873 -10.7054,-6.055584 -17.69827,-8.795056 -6.99288,-2.739471 -16.43655,-5.911391 -24.58285,-8.398533 -8.1463,-2.487142 -14.99476,-4.289369 -21.23065,-5.442822 -6.23589,-1.153454 -11.85884,-1.658078 -15.21106,-2.054579 -3.35222,-0.396501 -4.43355,-0.684856 -9.98463,-1.009267 -5.55107,-0.324412 -15.57145,-0.684857 -24.51076,-0.288348 -8.9393,0.396509 -16.79701,1.549935 -23.68172,2.703395 -6.8847,1.15346 -12.79601,2.306887 -19.24818,4.001036 -6.45217,1.694149 -13.44482,3.928913 -20.04116,6.307926 -6.59635,2.379012 -12.79601,4.902129 -18.56331,7.677644 -5.76729,2.775515 -11.10189,5.80326 -18.09476,10.345023 -6.99286,4.541762 -15.64356,10.597251 -23.17708,16.616871 -7.53353,6.01962 -13.94945,12.003008 -19.96907,18.274958 -6.019615,6.27194 -11.642566,12.83205 -16.436626,19.0319 -4.794061,6.19984 -8.758958,12.03905 -12.79607,18.67146 -4.037112,6.6324 -8.146193,14.05758 -11.101923,20.25741 -2.95573,6.19984 -4.757958,11.17399 -6.416054,15.85991 -1.658096,4.68593 -3.171969,9.08337 -4.794023,14.7065 -1.622054,5.62313 -3.352192,12.47159 -4.64983,20.04118 -1.297639,7.56959 -2.162708,15.85984 -2.631297,23.78987 -0.468589,7.93004 -0.540678,15.49939 -0.25231,22.81665 0.288369,7.31726 0.937171,14.38199 1.946452,21.30275 1.009282,6.92076 2.378975,13.69714 4.794042,22.60043 2.415067,8.90329 5.875344,19.93292 9.083403,28.51175 3.208058,8.57884 6.16371,14.70641 9.696187,20.94231 3.532477,6.23589 7.641555,12.57973 12.327494,19.17609 4.685939,6.59635 9.948442,13.44481 16.328529,20.61789 6.380086,7.17309 13.877356,14.67035 21.374846,21.05042 7.49749,6.38007 14.99475,11.64257 23.06898,16.79709 8.07423,5.15453 16.72492,10.20076 25.26773,14.27391 8.54281,4.07315 16.97724,7.17298 26.0247,9.8764 9.04746,2.70341 18.7074,5.01026 26.56532,6.63231 7.85793,1.62204 13.91342,2.5592 19.46444,2.9557 5.55102,0.3965 10.59726,0.25232 16.29248,0.0721 5.69521,-0.18023 12.03905,-0.3965 18.67145,-0.93719 6.6324,-0.54068 13.55295,-1.40575 21.0144,-2.63131 7.46145,-1.22555 15.46334,-2.81151 23.57361,-5.22657 8.11026,-2.41507 16.32842,-5.65908 24.3666,-9.37178 8.03817,-3.71271 15.89588,-7.89388 23.71778,-12.83213 7.8219,-4.93826 15.60752,-10.6333 21.98759,-15.75177 6.38006,-5.11848 11.35421,-9.6601 16.22036,-14.49021 4.86616,-4.83012 9.62404,-9.94844 13.98556,-14.85064 4.36152,-4.90221 8.32642,-9.588 12.83213,-16.00414 4.50571,-6.41614 9.55194,-14.56221 13.66114,-22.63643 4.10919,-8.07422 7.28111,-16.0761 10.23685,-23.898 2.95574,-7.8219 5.69512,-15.46335 7.60553,-23.42943 1.91041,-7.96609 2.99175,-16.25634 3.78475,-22.45616 0.793,-6.19983 1.29763,-10.30891 1.36972,-17.77028 z"
       id="path2-3"
       inkscape:path-effect="#path-effect2-2"
       inkscape:original-d="m 468.87685,270.12324 c -0.36046,-10.81358 -0.72091,-21.62716 -1.08136,-32.44074 -1.51393,-10.8138 -3.0278,-21.62716 -4.54171,-32.44074 -2.73949,-9.15568 -5.47888,-18.311 -8.21832,-27.4665 -3.46041,-7.78593 -6.92069,-15.57155 -10.38103,-23.35733 -5.47899,-8.00221 -10.95776,-16.0041 -16.43665,-24.00615 -4.97434,-6.272 -9.94849,-12.54375 -14.92274,-18.81563 -6.05572,-5.55108 -12.11121,-11.10194 -18.16681,-16.652914 -5.04644,-3.892967 -10.09268,-7.785778 -15.13901,-11.678667 -7.78594,-5.190622 -15.57156,-10.381037 -23.35734,-15.571556 -4.54179,-2.306943 -9.08341,-4.613794 -13.62511,-6.920691 -9.44405,-3.172047 -18.88772,-6.343967 -28.33158,-9.515951 -6.84874,-1.802299 -13.6972,-3.604527 -20.5458,-5.40679 -5.62318,-0.504644 -11.24613,-1.009268 -16.86919,-1.513901 -1.08138,-0.288368 -2.16271,-0.576725 -3.24407,-0.865087 -10.02079,-0.36046 -20.04117,-0.720905 -30.06176,-1.081358 -7.85802,1.153472 -15.71573,2.306897 -23.5736,3.460346 -5.91154,1.153472 -11.82285,2.306897 -17.73427,3.460346 -6.99292,2.234851 -13.98557,4.469613 -20.97835,6.70442 -6.19991,2.523219 -12.39957,5.046337 -18.59936,7.569506 -5.3348,3.027863 -10.6694,6.055605 -16.0041,9.083407 -8.65103,6.055727 -17.30173,12.11121 -25.95259,18.166815 -6.41619,5.983635 -12.83211,11.967025 -19.24817,17.950545 -5.623177,6.56037 -11.246126,13.12048 -16.869188,19.68072 -3.965059,5.83945 -7.929959,11.67866 -11.894938,17.518 -4.109243,7.42547 -8.218322,14.85065 -12.327482,22.27597 -1.8023,4.97435 -3.604527,9.9485 -5.40679,14.92274 -1.513932,4.39761 -3.027803,8.79505 -4.541704,13.19257 -1.730208,6.84874 -3.460346,13.6972 -5.190519,20.5458 -0.865103,8.29058 -1.730173,16.58083 -2.595259,24.87124 -0.07209,7.56966 -0.144181,15.13901 -0.216272,22.70852 0.648828,7.06501 1.29763,14.12974 1.946445,21.19461 1.369747,6.77665 2.73944,13.55303 4.10916,20.32954 3.460415,11.03007 6.920692,22.0597 10.381038,33.08955 2.955771,6.12782 5.911424,12.25539 8.867136,18.38309 4.109242,6.34409 8.218321,12.68793 12.327481,19.0319 5.262715,6.84874 10.525219,13.6972 15.787828,20.5458 7.497564,7.49757 14.994834,14.99483 22.492244,22.49225 7.49757,5.26271 14.99483,10.52522 22.49225,15.78783 8.65104,5.04644 17.30173,10.09267 25.95259,15.13901 8.43476,3.09996 16.86919,6.19979 25.30378,9.29968 9.66033,2.30694 19.32027,4.61379 28.9804,6.92069 6.05572,0.9372 12.11121,1.87435 18.16681,2.81153 5.04644,-0.14418 10.09268,-0.28836 15.13901,-0.43254 6.3441,-0.21628 12.68794,-0.43254 19.03191,-0.64882 6.92083,-0.8651 13.84138,-1.73017 20.76207,-2.59526 8.00221,-1.58602 16.0041,-3.17198 24.00615,-4.75797 8.21848,-3.24414 16.43664,-6.48815 24.65496,-9.73222 7.85803,-4.18134 15.71574,-8.36251 23.57361,-12.54376 7.78593,-5.69526 15.57155,-11.3903 23.35733,-17.08545 4.97435,-4.5418 9.9485,-9.08341 14.92274,-13.62512 4.75807,-5.11853 9.51595,-10.23685 14.27393,-15.35528 3.96506,-4.68598 7.92996,-9.37177 11.89494,-14.05765 5.04644,-8.1464 10.09267,-16.29247 15.13901,-24.4387 3.17205,-8.00221 6.34397,-16.00409 9.51595,-24.00614 2.7395,-7.64175 5.47888,-15.2832 8.21832,-22.92479 1.08138,-8.29058 2.16272,-16.58083 3.24408,-24.87124 0.50464,-4.10924 1.00926,-8.21832 1.5139,-12.32748 z"
       transform="matrix(1.1947596,0,0,1.1862618,-49.081641,-48.341239)" />
    <path
       style="fill:#000000;stroke-width:0.865086"
       d="m 234.43842,506.82012 c -1.18949,-0.17461 -5.08238,-0.7333 -8.65086,-1.24154 -17.13891,-2.44102 -47.07594,-10.31245 -62.32238,-16.38661 C 132.91152,477.01944 102.27392,456.66032 78.290322,432.59207 48.664814,402.862 29.95449,373.52362 18.324135,338.56319 8.1445482,307.96372 4.4891407,288.82719 3.7223887,262.12119 2.7327259,227.65118 6.9092859,201.01047 18.301828,169.1244 33.55774,126.42531 64.946503,84.846702 104.37007,55.115516 c 21.1771,-15.970662 42.09366,-27.67432 62.81038,-35.14493 40.37204,-14.5584658 77.82231,-19.06635666 119.1868,-14.3465176 17.13808,1.9555173 29.6567,4.7939466 49.71883,11.2730736 26.09102,8.426181 35.50668,12.921564 56.66316,27.053072 34.35675,22.948659 53.16401,41.095685 75.03812,72.403916 25.23023,36.11182 37.27363,73.37473 40.9609,126.73516 2.54966,36.89749 -1.85561,67.05917 -14.71981,100.78257 -13.27741,34.80659 -26.95937,56.2639 -53.63599,84.11693 -22.00381,22.97413 -45.48829,40.20715 -74.02836,54.32231 -24.13113,11.93462 -43.09289,17.72439 -70.50454,21.52782 -19.29732,2.67753 -52.50828,4.28949 -61.42114,2.9812 z m 46.31908,-38.41323 c 13.8135,-1.52361 30.95363,-4.95363 41.02738,-8.21025 32.45261,-10.49123 62.45446,-29.62823 88.26627,-56.30157 22.62466,-23.37981 33.95572,-40.92991 45.43329,-70.36932 6.14215,-15.75428 8.73411,-24.77751 10.81979,-37.66619 2.86976,-17.73398 3.46255,-28.62356 2.51267,-46.15858 -1.4584,-26.92247 -4.54676,-44.92223 -11.15343,-65.00503 -7.18917,-21.85352 -14.5788,-35.53888 -30.82969,-57.0957 -16.15848,-21.43424 -33.13493,-36.662356 -61.27877,-54.967889 -13.02915,-8.47453 -21.11637,-12.258299 -38.76276,-18.13594 -28.29021,-9.422875 -43.01842,-11.913 -71.15921,-12.031005 -28.56229,-0.119773 -50.77905,3.988891 -78.29032,14.478646 -13.67858,5.215499 -21.8198,9.461558 -35.47214,18.500527 -16.03883,10.61903 -27.05437,19.694364 -39.81617,32.803211 -26.957146,27.69022 -44.162963,57.9396 -53.575243,94.19012 -4.705678,18.12347 -5.655883,27.00007 -5.648029,52.76258 0.0082,26.99642 1.208896,36.05554 7.796587,58.82587 7.261539,25.09949 13.823288,39.87039 25.363902,57.09571 21.613817,32.2604 45.324663,54.19281 79.291383,73.34414 19.82025,11.17517 45.84209,19.68635 74.7439,24.4471 8.43576,1.38955 36.03925,1.114 50.73059,-0.50643 z"
       id="path3" />
    <path
       style="fill:#000000;stroke-width:0.865086"
       d="m 205.42504,365.08942 c -9.3108,-2.02693 -15.99402,-5.67021 -21.15338,-11.53156 -6.11868,-6.95117 -9.28983,-11.76161 -10.60841,-16.09231 -0.82727,-2.71705 -1.07851,-21.79479 -1.07851,-81.89788 v -78.35571 l 3.81141,-7.69158 c 4.67373,-9.43179 9.67436,-14.53801 18.36682,-18.75463 13.95433,-6.76911 20.43431,-6.5985 35.69393,0.93977 15.73283,7.77203 70.53032,40.87635 102.78874,62.09683 22.06575,14.51547 27.26858,20.9782 29.91239,37.15595 1.62321,9.93249 0.99985,14.11386 -3.58268,24.03216 -2.66168,5.76083 -3.69395,7.02459 -8.70849,10.66128 -13.30725,9.65083 -109.91141,71.80516 -117.72607,75.74399 -9.70308,4.89066 -17.46539,5.92515 -27.71575,3.69369 z"
       id="path4" />
  </g>
</svg>
